<svg id="Layer_1" data-name="Layer 1" xmlns="http://www.w3.org/2000/svg" viewBox="0 0 194.81 36.8">
  <defs>
    <style>
      .cls-1 {
        fill: #c00000;
      }

      .cls-2 {
        fill: #88b79e;
      }

      .cls-3 {
        fill: #00632f;
      }

      .cls-4 {
        fill: #d96363;
      }
    </style>
  </defs>
  <title>logo</title>
  <g>
    <path class="cls-1" d="M15.44,37.8c-.16-.44-.33-.87-.47-1.32a35.47,35.47,0,0,1-1-3.81c-.2-.93-.36-1.87-.49-2.81-.1-.7-.19-1.39-.26-2.09-.17-1.58-.27-3.16-.32-4.74,0-.6,0-1.19,0-1.79a.42.42,0,0,0,0-.16,1.18,1.18,0,0,1,0-.26c0-.39,0-.78,0-1.17,0-.6,0-1.2.07-1.8q0-.55.06-1.11l0-.23c0-.74.13-1.49.18-2.23,0-.4.07-.8.1-1.2a.87.87,0,0,1,.06-.32l.09-1,.06-.78s0-.06,0-.08a.38.38,0,0,1,.12.1l1.89,1.82a.81.81,0,0,0,.1.09s.07,0,.09.06c.33.33.69.64,1,1a.16.16,0,0,1,0,.07l.4.4a50,50,0,0,1,3.88,4.22,32.3,32.3,0,0,1,3,4.19c.06.1.11.2.16.3s-.06,0-.09,0A26.05,26.05,0,0,1,21,21.88c-1-.44-1.89-.94-2.81-1.46L18,20.35v.13c0,.67,0,1.34,0,2,0,1-.06,2.08-.13,3.12-.06.81-.13,1.63-.22,2.45a46.64,46.64,0,0,1-1.4,7.4,23.43,23.43,0,0,1-.76,2.28.07.07,0,0,0,0,.06Z" transform="translate(-5.19 -1)"/>
    <path class="cls-2" d="M42.91,12.12a.15.15,0,0,1,.09,0v.05h0S42.93,12.15,42.91,12.12Z" transform="translate(-5.19 -1)"/>
    <path class="cls-1" d="M32.83,12.82l.36-.5,1.08-1.5.09-.13a.31.31,0,0,1,0,.18l.06,1.71a.49.49,0,0,1,0,.12.82.82,0,0,1,.06.38c0,.38,0,.76,0,1.14s0,1.07.06,1.61l0,.73c0,.45,0,.9,0,1.34,0,.89.06,1.78.06,2.66,0,.16,0,.32,0,.48a.45.45,0,0,1,0,.2c0,.2,0,.39,0,.59,0,1.14,0,2.28-.08,3.42,0,1-.11,2-.19,3s-.19,2-.32,2.93c-.16,1.25-.36,2.49-.61,3.72-.16.77-.34,1.53-.56,2.29a.19.19,0,0,1-.06.13c0-.06,0-.11-.07-.17-.42-1.11-.76-2.25-1.07-3.4-.4-1.52-.73-3.06-1-4.6-.2-1.07-.37-2.14-.51-3.22,0-.27-.07-.54-.11-.81,0,0,0,0,0,0A78.31,78.31,0,0,1,24,31.6a.23.23,0,0,1-.08-.09c-.93-1.12-1.87-2.24-2.74-3.41a35.7,35.7,0,0,1-2.06-3s-.05-.08-.07-.13,0,0,0,0c.4.16.78.35,1.17.54,1.06.52,2.09,1.09,3.1,1.68a.23.23,0,0,0,.14.07l.19-.37a82.7,82.7,0,0,1,4.4-7.42c1-1.56,2.13-3.07,3.22-4.59l.54-.75L32,14c0-.12.11-.19.17-.28.2-.28.4-.57.61-.85A.18.18,0,0,1,32.83,12.82Z" transform="translate(-5.19 -1)"/>
    <path class="cls-3" d="M32.83,12.82c-.29.41-.58.82-.88,1.22l-1.27-.1-1.81-.13-1.32-.09-1.73-.12a20.49,20.49,0,0,0-2.48-.1c-.6,0-1.2.09-1.8.13l-1.27.09-1.81.13-1.29.09-.4,0c-.08-.06-.14-.14-.22-.21L15.72,13l-.08-.09a3.64,3.64,0,0,1,.57,0l2.26.16.52,0c.12,0,.12,0,.16-.1l.78-1.91c1.33-3.33,2.64-6.66,4-10,0,0,0-.07,0-.11s.05.07.07.11l1.93,4.74c1,2.38,1.93,4.75,2.89,7.13.06.13,0,.12.18.11L30.78,13l1.31-.09Z" transform="translate(-5.19 -1)"/>
    <path class="cls-3" d="M34.52,14.22c0-.32,0-.64,0-1s0-.37,0-.56l2.5-.18,1.73-.12,2.48-.18,1.37-.1s.05,0,.06,0l-.83,1-6.94,8a.35.35,0,0,1-.1.11c0-.59,0-1.19,0-1.78s-.05-1.41-.07-2.11c0-.25,0-.5,0-.74,0,0,0,0,0,0s.19-.21.29-.3L37,14.49a.09.09,0,0,1,.06,0,2.44,2.44,0,0,0-.53,0l-1.33-.1a3.23,3.23,0,0,1-.53,0A.21.21,0,0,1,34.52,14.22Z" transform="translate(-5.19 -1)"/>
    <path class="cls-4" d="M19.11,25h0s0,0,0,0S19.1,25,19.11,25Z" transform="translate(-5.19 -1)"/>
    <path class="cls-3" d="M13,16.44,13,17.9c0,.41,0,.83,0,1.24,0,.59,0,1.18,0,1.77a.34.34,0,0,1,0,.1L12,20,5.32,12.31l-.1-.1s0,0,0-.08a.17.17,0,0,1,.12,0l1.79.12,1.28.09,1.8.14,1.18.08,2,.14a2.8,2.8,0,0,1,0,.4c0,.34-.05.69-.08,1a.29.29,0,0,0,0,.09.25.25,0,0,1-.16.06c-.44,0-.89.06-1.34.09l-1,.07a1.71,1.71,0,0,1,.4.32l1.36,1.17.45.4A.18.18,0,0,1,13,16.44Z" transform="translate(-5.19 -1)"/>
  </g>
  <g>
    <path d="M65.41,10.62h3.68l1.64,11.73h0l1.64-11.73h3.68V27H73.66V14.6h0L71.73,27H69.58L67.71,14.6h0V27H65.41Z" transform="translate(-5.19 -1)"/>
    <path d="M80,10.62H83.5L86.17,27H83.59l-.47-3.25v0H80.19L79.72,27H77.34Zm2.81,11-1.15-8.1h0l-1.12,8.1Z" transform="translate(-5.19 -1)"/>
    <path d="M87.41,10.62h3.82c2.67,0,3.82,1.24,3.82,3.77v1c0,1.68-.54,2.76-1.69,3.23v.05c1.29.4,1.71,1.61,1.71,3.46V25a4.75,4.75,0,0,0,.28,2H92.73a5,5,0,0,1-.24-2V22c0-1.52-.44-2-1.61-2H90v7H87.41Zm3.51,7c1,0,1.55-.43,1.55-1.74V14.65c0-1.17-.4-1.69-1.31-1.69H90v4.69Z" transform="translate(-5.19 -1)"/>
    <path d="M96.66,23.13V14.51c0-2.63,1.39-4.12,3.92-4.12s3.91,1.49,3.91,4.12v8.62c0,2.62-1.38,4.12-3.91,4.12S96.66,25.75,96.66,23.13Zm5.25.16V14.34c0-1.17-.51-1.61-1.33-1.61s-1.34.44-1.34,1.61v9c0,1.17.52,1.62,1.34,1.62S101.91,24.46,101.91,23.29Z" transform="translate(-5.19 -1)"/>
    <path d="M106.06,23.22V14.41c0-2.53,1.31-4,3.79-4s3.8,1.49,3.8,4v1.74h-2.44v-1.9c0-1.08-.51-1.52-1.29-1.52s-1.28.44-1.28,1.52v9.16c0,1.08.51,1.5,1.28,1.5s1.29-.42,1.29-1.5V20.9h2.44v2.32c0,2.53-1.31,4-3.8,4S106.06,25.75,106.06,23.22Z" transform="translate(-5.19 -1)"/>
    <path d="M118.94,10.62h3.68l1.64,11.73h0L126,10.62h3.68V27h-2.44V14.6h0L125.27,27h-2.16L121.24,14.6h0V27h-2.25Z" transform="translate(-5.19 -1)"/>
    <path d="M133.54,10.62H137L139.7,27h-2.57l-.47-3.25v0h-2.93l-.47,3.2h-2.39Zm2.81,11-1.15-8.1h0L134,21.58Z" transform="translate(-5.19 -1)"/>
    <path d="M140.71,23.13V14.51c0-2.63,1.31-4.12,3.84-4.12s3.84,1.49,3.84,4.12v1.4H146V14.34c0-1.17-.52-1.61-1.34-1.61s-1.33.44-1.33,1.61v9c0,1.18.51,1.6,1.33,1.6s1.34-.42,1.34-1.6v-3.2h-1.29V17.76h3.72v5.37c0,2.62-1.31,4.12-3.84,4.12S140.71,25.75,140.71,23.13Z" transform="translate(-5.19 -1)"/>
    <path d="M152.05,10.62h3.49L158.21,27h-2.58l-.47-3.25v0h-2.92l-.47,3.2h-2.39Zm2.81,11-1.15-8.1h0l-1.13,8.1Z" transform="translate(-5.19 -1)"/>
    <path d="M159,24.72,163.81,13h-4.54V10.62h7.3v2.3L161.8,24.67h4.77V27H159Z" transform="translate(-5.19 -1)"/>
    <path d="M168,10.62h2.57V27H168Z" transform="translate(-5.19 -1)"/>
    <path d="M172.53,10.62h3.23l2.5,9.81h.05V10.62h2.3V27H178l-3.09-12h-.05V27h-2.29Z" transform="translate(-5.19 -1)"/>
    <path d="M182.53,10.62h7V13h-4.45V17.3h3.53v2.34h-3.53v5h4.45V27h-7Z" transform="translate(-5.19 -1)"/>
  </g>
  <path d="M200,33.8H55V4.8H200Zm-142-3H197V7.8H58Z" transform="translate(-5.19 -1)"/>
</svg>
