<svg xmlns="http://www.w3.org/2000/svg" width="512" height="512" viewBox="0 0 45.759 45.759"><g fill="#9ea3a8"><path d="M29.69 19.635a13.87 13.87 0 0 0-1.484-1.287 8.63 8.63 0 0 0-3.445 2.344 10.13 10.13 0 0 1 3.086 2.115c3.97 3.971 3.97 10.405 0 14.375-3.97 3.971-10.405 3.971-14.375 0-3.97-3.97-3.97-10.404 0-14.375a10.117 10.117 0 0 1 3.82-2.405 15.255 15.255 0 0 1 2.818-4.781 13.678 13.678 0 0 0-8.207 2.639l-.439-6.065a.836.836 0 0 0-.258-.527L9.118 9.581a.781.781 0 0 0-1.138.004L.264 17.301c-.328.328-.362.841-.034 1.169l2.063 2.063a.83.83 0 0 0 .525.25l6.123.439C4.994 26.586 5.446 34.173 10.3 39.029c5.354 5.354 14.036 5.354 19.389-.001 5.354-5.356 5.356-14.038.001-19.393zm-26.779-.841l-.893-.894 6.535-6.534.893.893-6.535 6.535zm7.4.84l-5.487-.399 5.108-5.108.385 5.499c-.003.001-.004.005-.006.008z"/><path d="M44.558 10.755l1.134-2.725c.179-.429-.009-.873-.438-1.051L35.18 2.787c-.428-.178-.916-.015-1.094.414l-1.121 2.694a.826.826 0 0 0-.03.581l1.928 5.827c-6.465-1.604-13.306 1.706-15.943 8.045-2.702 6.492-.039 13.876 5.955 17.227a8.759 8.759 0 0 0 2.24-1.794c-5.047-2.226-7.411-8.088-5.282-13.205 2.157-5.183 8.106-7.636 13.291-5.479 5.184 2.157 7.636 8.106 5.479 13.289a10.15 10.15 0 0 1-7.132 6.008 15.164 15.164 0 0 1-2.015 2.935c5.415.047 10.572-3.138 12.781-8.446 2.635-6.329.17-13.507-5.508-16.968l5.44-2.719a.845.845 0 0 0 .389-.441zm-7.697 2.211l-.01-.002-1.723-5.225 6.67 2.775-4.937 2.452zm6.477-3.613l-8.532-3.55.485-1.166 8.531 3.55-.484 1.166z"/></g></svg>